<svg width="160" height="160" viewBox="0 0 160 160" fill="none" xmlns="http://www.w3.org/2000/svg">
    <g clip-path="url(#clip0_1403_2)">
        <mask id="mask0_1403_2" style="mask-type:alpha" maskUnits="userSpaceOnUse" x="1" y="0" width="67" height="49">
            <path d="M29.8819 5.28179C17.1225 7.73604 7.14158 17.7701 4.70349 30.6032C3.56825 36.5741 2.63873 42.5731 1.91492 48.5925C14.5244 47.2159 30.047 43.5333 43.2508 34.4569C54.2248 26.9129 60.0483 14.0517 67.1568 0.845764C54.6692 1.43315 42.2121 2.91183 29.8819 5.28179Z" fill="white"/>
        </mask>
        <g mask="url(#mask0_1403_2)">
            <path fill-rule="evenodd" clip-rule="evenodd" d="M29.8819 5.28179C17.1225 7.73604 7.14158 17.7701 4.70349 30.6032C3.56825 36.5741 2.63873 42.5731 1.91492 48.5925C14.5244 47.2159 30.047 43.5333 43.2508 34.4569C54.2248 26.9129 60.0483 14.0517 67.1568 0.845764C54.6692 1.43315 42.2121 2.91183 29.8819 5.28179Z" fill="url(#paint0_linear_1403_2)"/>
        </g>
        <mask id="mask1_1403_2" style="mask-type:alpha" maskUnits="userSpaceOnUse" x="0" y="0" width="145" height="115">
            <path d="M79.0095 0.554626C74.3416 0.562288 69.6737 0.697642 65.0083 0.95558C58.1486 13.7095 52.5079 26.1186 41.9073 33.4048C29.1962 42.1415 14.273 45.7194 2.10286 47.0704C-0.716187 69.4293 -0.698409 92.0564 2.15873 114.408C13.7092 98.3567 28.7543 91.2417 39.266 89.8115C75.8984 84.8367 87.4235 60.1027 103.944 33.7368C113.041 19.2156 128.978 13.9163 144.028 12.55C139.891 8.92358 134.801 6.36463 129.168 5.2818C112.94 2.16355 96.4902 0.585273 80.0381 0.554626H79.0095Z" fill="white"/>
        </mask>
        <g mask="url(#mask1_1403_2)">
            <path fill-rule="evenodd" clip-rule="evenodd" d="M79.0095 0.554626C74.3416 0.562288 69.6737 0.697642 65.0083 0.95558C58.1486 13.7095 52.5079 26.1186 41.9073 33.4048C29.1962 42.1415 14.273 45.7194 2.10286 47.0704C-0.716187 69.4293 -0.698409 92.0564 2.15873 114.408C13.7092 98.3567 28.7543 91.2417 39.266 89.8115C75.8984 84.8367 87.4235 60.1027 103.944 33.7368C113.041 19.2156 128.978 13.9163 144.028 12.55C139.891 8.92358 134.801 6.36463 129.168 5.2818C112.94 2.16355 96.4902 0.585273 80.0381 0.554626H79.0095Z" fill="url(#paint1_linear_1403_2)"/>
        </g>
        <mask id="mask2_1403_2" style="mask-type:alpha" maskUnits="userSpaceOnUse" x="0" y="11" width="160" height="145">
            <path d="M103.944 32.4087C87.4235 58.7772 79.5225 77.9821 42.8927 82.9621C31.9822 84.4408 12.7365 85.0078 0.868561 102.034C1.63554 111.55 2.91555 121.032 4.70348 130.443C7.10856 143.113 16.8711 153.052 29.3994 155.665C31.6216 136.738 38.8038 119.758 58.7352 107.732C88.4343 89.8115 100.312 100.762 131.002 91.8035C142.857 88.3431 152.056 82.3288 159.012 76.0157C158.756 60.805 157.199 45.6096 154.344 30.6032C152.863 22.7935 148.589 16.0233 142.593 11.3651C127.972 12.9357 112.752 18.3498 103.944 32.4087Z" fill="white"/>
        </mask>
        <g mask="url(#mask2_1403_2)">
            <path fill-rule="evenodd" clip-rule="evenodd" d="M103.944 32.4087C87.4235 58.7772 79.5225 77.9821 42.8927 82.9621C31.9822 84.4408 12.7365 85.0078 0.868561 102.034C1.63554 111.55 2.91555 121.032 4.70348 130.443C7.10856 143.113 16.8711 153.052 29.3994 155.665C31.6216 136.738 38.8038 119.758 58.7352 107.732C88.4343 89.8115 100.312 100.762 131.002 91.8035C142.857 88.3431 152.056 82.3288 159.012 76.0157C158.756 60.805 157.199 45.6096 154.344 30.6032C152.863 22.7935 148.589 16.0233 142.593 11.3651C127.972 12.9357 112.752 18.3498 103.944 32.4087Z" fill="url(#paint2_linear_1403_2)"/>
        </g>
        <mask id="mask3_1403_2" style="mask-type:alpha" maskUnits="userSpaceOnUse" x="90" y="119" width="67" height="42">
            <path d="M126.024 123.042C102.499 131.687 93.6178 150.435 90.4889 160.262C103.446 159.721 116.373 158.221 129.168 155.762C141.93 153.308 151.909 143.274 154.344 130.443C155.043 126.768 155.665 123.083 156.208 119.39C155.126 119.367 154.024 119.354 152.907 119.354C143.86 119.354 133.801 120.179 126.024 123.042Z" fill="white"/>
        </mask>
        <g mask="url(#mask3_1403_2)">
            <path fill-rule="evenodd" clip-rule="evenodd" d="M126.024 123.042C102.499 131.687 93.6178 150.435 90.4889 160.262C103.446 159.721 116.373 158.221 129.168 155.762C141.93 153.308 151.909 143.274 154.344 130.443C155.043 126.768 155.665 123.083 156.208 119.39C155.126 119.367 154.024 119.354 152.907 119.354C143.86 119.354 133.801 120.179 126.024 123.042Z" fill="url(#paint3_linear_1403_2)"/>
        </g>
        <mask id="mask4_1403_2" style="mask-type:alpha" maskUnits="userSpaceOnUse" x="27" y="74" width="133" height="87">
            <path d="M130.596 90.8152C99.4641 99.9018 87.4159 88.7951 57.2876 106.971C37.1962 119.091 29.8743 136.177 27.5708 155.228C28.3302 155.433 29.0997 155.611 29.8819 155.762C46.1079 158.88 62.5524 160.459 79.0019 160.489H80.0483C84.6273 160.482 89.2064 160.351 93.7803 160.104C96.8127 150.698 105.305 133 127.581 124.809C135.784 121.793 146.644 121.15 155.916 121.323C158.004 107.803 159.05 94.1633 159.05 80.5232C159.05 78.6206 159.03 76.718 158.989 74.8154C151.937 81.2179 142.611 87.3037 130.596 90.8152Z" fill="white"/>
        </mask>
        <g mask="url(#mask4_1403_2)">
            <path fill-rule="evenodd" clip-rule="evenodd" d="M130.596 90.8152C99.4641 99.9018 87.4159 88.7951 57.2876 106.971C37.1962 119.091 29.8743 136.177 27.5708 155.228C28.3302 155.433 29.0997 155.611 29.8819 155.762C46.1079 158.88 62.5524 160.459 79.0019 160.489H80.0483C84.6273 160.482 89.2064 160.351 93.7803 160.104C96.8127 150.698 105.305 133 127.581 124.809C135.784 121.793 146.644 121.15 155.916 121.323C158.004 107.803 159.05 94.1633 159.05 80.5232C159.05 78.6206 159.03 76.718 158.989 74.8154C151.937 81.2179 142.611 87.3037 130.596 90.8152Z" fill="url(#paint4_linear_1403_2)"/>
        </g>
        <path d="M26.362 39.18C25.402 39.18 24.508 39.018 23.68 38.694C22.864 38.358 22.15 37.896 21.538 37.308C20.926 36.72 20.446 36.036 20.098 35.256C19.762 34.464 19.594 33.612 19.594 32.7C19.594 31.776 19.762 30.924 20.098 30.144C20.446 29.352 20.926 28.662 21.538 28.074C22.162 27.486 22.882 27.03 23.698 26.706C24.526 26.37 25.414 26.202 26.362 26.202C27.058 26.202 27.742 26.304 28.414 26.508C29.086 26.712 29.704 27 30.268 27.372C30.844 27.732 31.324 28.164 31.708 28.668L29.62 30.72C29.176 30.156 28.678 29.736 28.126 29.46C27.586 29.184 26.998 29.046 26.362 29.046C25.858 29.046 25.384 29.142 24.94 29.334C24.508 29.514 24.13 29.766 23.806 30.09C23.482 30.414 23.23 30.798 23.05 31.242C22.87 31.686 22.78 32.172 22.78 32.7C22.78 33.216 22.87 33.696 23.05 34.14C23.242 34.572 23.5 34.956 23.824 35.292C24.16 35.616 24.55 35.868 24.994 36.048C25.45 36.228 25.942 36.318 26.47 36.318C27.082 36.318 27.646 36.186 28.162 35.922C28.69 35.658 29.164 35.268 29.584 34.752L31.618 36.75C31.234 37.242 30.76 37.674 30.196 38.046C29.632 38.406 29.02 38.688 28.36 38.892C27.7 39.084 27.034 39.18 26.362 39.18ZM37.2551 39.18C36.2831 39.18 35.4071 38.964 34.6271 38.532C33.8471 38.088 33.2291 37.494 32.7731 36.75C32.3171 36.006 32.0891 35.172 32.0891 34.248C32.0891 33.324 32.3171 32.49 32.7731 31.746C33.2291 30.99 33.8471 30.396 34.6271 29.964C35.4071 29.52 36.2831 29.298 37.2551 29.298C38.2271 29.298 39.1031 29.52 39.8831 29.964C40.6631 30.396 41.2811 30.99 41.7371 31.746C42.1931 32.49 42.4211 33.324 42.4211 34.248C42.4211 35.172 42.1931 36.006 41.7371 36.75C41.2811 37.494 40.6631 38.088 39.8831 38.532C39.1031 38.964 38.2271 39.18 37.2551 39.18ZM37.2551 36.66C37.6991 36.66 38.0951 36.552 38.4431 36.336C38.7911 36.12 39.0671 35.832 39.2711 35.472C39.4751 35.1 39.5771 34.692 39.5771 34.248C39.5771 33.792 39.4751 33.384 39.2711 33.024C39.0671 32.652 38.7851 32.358 38.4251 32.142C38.0771 31.926 37.6871 31.818 37.2551 31.818C36.8231 31.818 36.4271 31.926 36.0671 32.142C35.7191 32.358 35.4431 32.652 35.2391 33.024C35.0351 33.384 34.9331 33.792 34.9331 34.248C34.9331 34.692 35.0351 35.1 35.2391 35.472C35.4431 35.832 35.7191 36.12 36.0671 36.336C36.4271 36.552 36.8231 36.66 37.2551 36.66ZM43.7887 39V29.478H46.7047V30.126C47.4247 29.574 48.2767 29.298 49.2607 29.298C50.0047 29.298 50.6587 29.46 51.2227 29.784C51.7987 30.108 52.2487 30.558 52.5727 31.134C52.8967 31.71 53.0587 32.376 53.0587 33.132V39H50.1427V33.528C50.1427 33 49.9867 32.58 49.6747 32.268C49.3627 31.956 48.9427 31.8 48.4147 31.8C48.0427 31.8 47.7127 31.866 47.4247 31.998C47.1487 32.13 46.9087 32.316 46.7047 32.556V39H43.7887ZM56.0409 39V31.908H53.9529V29.478H56.0409V28.902C56.0409 27.774 56.3709 26.916 57.0309 26.328C57.7029 25.728 58.6629 25.428 59.9109 25.428C60.1629 25.428 60.4329 25.446 60.7209 25.482C61.0209 25.506 61.2669 25.548 61.4589 25.608V28.02C61.2309 27.972 61.0269 27.942 60.8469 27.93C60.6789 27.906 60.4989 27.894 60.3069 27.894C59.8629 27.894 59.5269 27.984 59.2989 28.164C59.0709 28.332 58.9569 28.596 58.9569 28.956V29.478H61.4589V31.908H58.9569V39H56.0409ZM62.6852 39V29.478H65.6012V39H62.6852ZM64.1432 28.596C63.6992 28.596 63.3212 28.44 63.0092 28.128C62.6972 27.816 62.5412 27.438 62.5412 26.994C62.5412 26.55 62.6972 26.172 63.0092 25.86C63.3212 25.548 63.6992 25.392 64.1432 25.392C64.5872 25.392 64.9652 25.548 65.2772 25.86C65.5892 26.172 65.7452 26.55 65.7452 26.994C65.7452 27.438 65.5892 27.816 65.2772 28.128C64.9652 28.44 64.5872 28.596 64.1432 28.596ZM72.2561 42.852C71.4881 42.852 70.7561 42.78 70.0601 42.636C69.3761 42.492 68.7521 42.288 68.1881 42.024L69.1601 39.756C69.6761 39.996 70.1861 40.176 70.6901 40.296C71.1941 40.416 71.6981 40.476 72.2021 40.476C72.8861 40.476 73.4021 40.338 73.7501 40.062C74.0981 39.786 74.2721 39.372 74.2721 38.82V38.28C73.5281 38.784 72.7061 39.036 71.8061 39.036C70.9061 39.036 70.0901 38.82 69.3581 38.388C68.6261 37.956 68.0441 37.374 67.6121 36.642C67.1801 35.898 66.9641 35.076 66.9641 34.176C66.9641 33.276 67.1801 32.46 67.6121 31.728C68.0561 30.996 68.6501 30.42 69.3941 30C70.1501 29.568 70.9901 29.352 71.9141 29.352C72.3461 29.352 72.7661 29.406 73.1741 29.514C73.5821 29.622 73.9601 29.778 74.3081 29.982V29.478H77.1881V38.856C77.1881 40.14 76.7621 41.124 75.9101 41.808C75.0701 42.504 73.8521 42.852 72.2561 42.852ZM72.3101 36.588C72.7061 36.588 73.0661 36.528 73.3901 36.408C73.7261 36.288 74.0201 36.114 74.2721 35.886V32.52C74.0201 32.304 73.7261 32.136 73.3901 32.016C73.0661 31.884 72.7121 31.818 72.3281 31.818C71.8601 31.818 71.4341 31.926 71.0501 32.142C70.6781 32.346 70.3781 32.628 70.1501 32.988C69.9341 33.336 69.8261 33.732 69.8261 34.176C69.8261 34.632 69.9341 35.046 70.1501 35.418C70.3661 35.778 70.6601 36.066 71.0321 36.282C71.4161 36.486 71.8421 36.588 72.3101 36.588ZM82.7061 39.18C81.9621 39.18 81.3021 39.018 80.7261 38.694C80.1621 38.37 79.7181 37.92 79.3941 37.344C79.0701 36.756 78.9081 36.09 78.9081 35.346V29.478H81.8241V34.95C81.8241 35.466 81.9801 35.886 82.2921 36.21C82.6161 36.522 83.0361 36.678 83.5521 36.678C83.9241 36.678 84.2541 36.612 84.5421 36.48C84.8301 36.348 85.0701 36.162 85.2621 35.922V29.478H88.1781V39H85.2621V38.352C84.5421 38.904 83.6901 39.18 82.7061 39.18ZM89.984 39V29.478H92.9V30.432C93.212 30.048 93.578 29.76 93.998 29.568C94.418 29.364 94.886 29.262 95.402 29.262C95.918 29.274 96.284 29.352 96.5 29.496V32.034C96.308 31.938 96.092 31.866 95.852 31.818C95.612 31.77 95.366 31.746 95.114 31.746C94.658 31.746 94.232 31.854 93.836 32.07C93.452 32.274 93.14 32.568 92.9 32.952V39H89.984ZM100.62 39.162C99.9477 39.162 99.3477 39.036 98.8197 38.784C98.3037 38.532 97.8957 38.184 97.5957 37.74C97.3077 37.296 97.1637 36.786 97.1637 36.21C97.1637 35.298 97.5057 34.596 98.1897 34.104C98.8857 33.6 99.8517 33.348 101.088 33.348C101.832 33.348 102.552 33.438 103.248 33.618V33.15C103.248 32.67 103.092 32.316 102.78 32.088C102.48 31.848 102.03 31.728 101.43 31.728C101.058 31.728 100.638 31.788 100.17 31.908C99.7137 32.028 99.1737 32.22 98.5497 32.484L97.5057 30.342C98.2857 29.994 99.0357 29.736 99.7557 29.568C100.488 29.388 101.22 29.298 101.952 29.298C103.272 29.298 104.298 29.616 105.03 30.252C105.762 30.876 106.128 31.758 106.128 32.898V39H103.248V38.424C102.864 38.688 102.456 38.88 102.024 39C101.604 39.108 101.136 39.162 100.62 39.162ZM99.9357 36.156C99.9357 36.456 100.068 36.69 100.332 36.858C100.596 37.026 100.962 37.11 101.43 37.11C101.778 37.11 102.102 37.074 102.402 37.002C102.714 36.93 102.996 36.816 103.248 36.66V35.436C102.972 35.364 102.69 35.31 102.402 35.274C102.114 35.238 101.82 35.22 101.52 35.22C101.016 35.22 100.626 35.304 100.35 35.472C100.074 35.628 99.9357 35.856 99.9357 36.156ZM112.403 39.126C111.263 39.126 110.399 38.874 109.811 38.37C109.235 37.854 108.947 37.098 108.947 36.102V31.908H107.021V29.478H108.947V27.03L111.863 26.4V29.478H114.527V31.908H111.863V35.526C111.863 35.946 111.953 36.246 112.133 36.426C112.325 36.594 112.655 36.678 113.123 36.678C113.363 36.678 113.579 36.666 113.771 36.642C113.975 36.606 114.197 36.552 114.437 36.48V38.838C114.173 38.922 113.837 38.988 113.429 39.036C113.021 39.096 112.679 39.126 112.403 39.126ZM115.666 39V29.478H118.582V39H115.666ZM117.124 28.596C116.68 28.596 116.302 28.44 115.99 28.128C115.678 27.816 115.522 27.438 115.522 26.994C115.522 26.55 115.678 26.172 115.99 25.86C116.302 25.548 116.68 25.392 117.124 25.392C117.568 25.392 117.946 25.548 118.258 25.86C118.57 26.172 118.726 26.55 118.726 26.994C118.726 27.438 118.57 27.816 118.258 28.128C117.946 28.44 117.568 28.596 117.124 28.596ZM125.111 39.18C124.139 39.18 123.263 38.964 122.483 38.532C121.703 38.088 121.085 37.494 120.629 36.75C120.173 36.006 119.945 35.172 119.945 34.248C119.945 33.324 120.173 32.49 120.629 31.746C121.085 30.99 121.703 30.396 122.483 29.964C123.263 29.52 124.139 29.298 125.111 29.298C126.083 29.298 126.959 29.52 127.739 29.964C128.519 30.396 129.137 30.99 129.593 31.746C130.049 32.49 130.277 33.324 130.277 34.248C130.277 35.172 130.049 36.006 129.593 36.75C129.137 37.494 128.519 38.088 127.739 38.532C126.959 38.964 126.083 39.18 125.111 39.18ZM125.111 36.66C125.555 36.66 125.951 36.552 126.299 36.336C126.647 36.12 126.923 35.832 127.127 35.472C127.331 35.1 127.433 34.692 127.433 34.248C127.433 33.792 127.331 33.384 127.127 33.024C126.923 32.652 126.641 32.358 126.281 32.142C125.933 31.926 125.543 31.818 125.111 31.818C124.679 31.818 124.283 31.926 123.923 32.142C123.575 32.358 123.299 32.652 123.095 33.024C122.891 33.384 122.789 33.792 122.789 34.248C122.789 34.692 122.891 35.1 123.095 35.472C123.299 35.832 123.575 36.12 123.923 36.336C124.283 36.552 124.679 36.66 125.111 36.66ZM131.644 39V29.478H134.56V30.126C135.28 29.574 136.132 29.298 137.116 29.298C137.86 29.298 138.514 29.46 139.078 29.784C139.654 30.108 140.104 30.558 140.428 31.134C140.752 31.71 140.914 32.376 140.914 33.132V39H137.998V33.528C137.998 33 137.842 32.58 137.53 32.268C137.218 31.956 136.798 31.8 136.27 31.8C135.898 31.8 135.568 31.866 135.28 31.998C135.004 32.13 134.764 32.316 134.56 32.556V39H131.644Z" fill="white"/>
        <path d="M111.058 129.333L110.508 126.583C110.142 126.431 109.798 126.27 109.477 126.102C109.156 125.934 108.828 125.728 108.492 125.483L105.833 126.308L104 123.192L106.108 121.358C106.047 120.961 106.017 120.564 106.017 120.167C106.017 119.769 106.047 119.372 106.108 118.975L104 117.142L105.833 114.025L108.492 114.85C108.828 114.606 109.156 114.399 109.477 114.231C109.798 114.063 110.142 113.903 110.508 113.75L111.058 111H114.725L115.275 113.75C115.642 113.903 115.985 114.063 116.306 114.231C116.627 114.399 116.956 114.606 117.292 114.85L119.95 114.025L121.783 117.142L119.675 118.975C119.736 119.372 119.767 119.769 119.767 120.167C119.767 120.564 119.736 120.961 119.675 121.358L121.783 123.192L119.95 126.308L117.292 125.483C116.956 125.728 116.627 125.934 116.306 126.102C115.985 126.27 115.642 126.431 115.275 126.583L114.725 129.333H111.058ZM112.892 123.833C113.9 123.833 114.763 123.474 115.481 122.756C116.199 122.038 116.558 121.175 116.558 120.167C116.558 119.158 116.199 118.295 115.481 117.577C114.763 116.859 113.9 116.5 112.892 116.5C111.883 116.5 111.02 116.859 110.302 117.577C109.584 118.295 109.225 119.158 109.225 120.167C109.225 121.175 109.584 122.038 110.302 122.756C111.02 123.474 111.883 123.833 112.892 123.833ZM127.467 149.5L126.642 145.65C126.122 145.467 125.641 145.245 125.198 144.985C124.755 144.726 124.319 144.428 123.892 144.092L120.225 145.283L117.658 140.883L120.592 138.317C120.531 137.767 120.5 137.217 120.5 136.667C120.5 136.117 120.531 135.567 120.592 135.017L117.658 132.45L120.225 128.05L123.892 129.242C124.319 128.906 124.755 128.608 125.198 128.348C125.641 128.088 126.122 127.867 126.642 127.683L127.467 123.833H132.6L133.425 127.683C133.944 127.867 134.426 128.088 134.869 128.348C135.312 128.608 135.747 128.906 136.175 129.242L139.842 128.05L142.408 132.45L139.475 135.017C139.536 135.567 139.567 136.117 139.567 136.667C139.567 137.217 139.536 137.767 139.475 138.317L142.408 140.883L139.842 145.283L136.175 144.092C135.747 144.428 135.312 144.726 134.869 144.985C134.426 145.245 133.944 145.467 133.425 145.65L132.6 149.5H127.467ZM130.033 142.167C131.561 142.167 132.86 141.632 133.929 140.563C134.999 139.493 135.533 138.194 135.533 136.667C135.533 135.139 134.999 133.84 133.929 132.771C132.86 131.701 131.561 131.167 130.033 131.167C128.506 131.167 127.207 131.701 126.138 132.771C125.068 133.84 124.533 135.139 124.533 136.667C124.533 138.194 125.068 139.493 126.138 140.563C127.207 141.632 128.506 142.167 130.033 142.167Z" fill="white"/>
    </g>
    <defs>
        <linearGradient id="paint0_linear_1403_2" x1="61.0013" y1="14.5395" x2="14.3645" y2="30.248" gradientUnits="userSpaceOnUse">
            <stop stop-color="#121C28"/>
            <stop offset="1" stop-color="#2A2367"/>
        </linearGradient>
        <linearGradient id="paint1_linear_1403_2" x1="114.404" y1="20.2994" x2="39.0881" y2="89.0192" gradientUnits="userSpaceOnUse">
            <stop stop-color="#28235B"/>
            <stop offset="1" stop-color="#E6007E"/>
        </linearGradient>
        <linearGradient id="paint2_linear_1403_2" x1="147.997" y1="55.3693" x2="21.0256" y2="123.426" gradientUnits="userSpaceOnUse">
            <stop stop-color="#FF9500"/>
            <stop offset="1" stop-color="#E6007E"/>
        </linearGradient>
        <linearGradient id="paint3_linear_1403_2" x1="154.688" y1="138.523" x2="112.34" y2="156.725" gradientUnits="userSpaceOnUse">
            <stop stop-color="#E6332A"/>
            <stop offset="1" stop-color="#FF645B"/>
        </linearGradient>
        <linearGradient id="paint4_linear_1403_2" x1="132.879" y1="107.08" x2="84.638" y2="147.806" gradientUnits="userSpaceOnUse">
            <stop stop-color="#FF9500"/>
            <stop offset="1" stop-color="#FF645B"/>
        </linearGradient>
        <clipPath id="clip0_1403_2">
            <rect width="160" height="160" fill="white"/>
        </clipPath>
    </defs>
</svg>
